<?xml version="1.0" standalone="no"?><!DOCTYPE svg PUBLIC "-//W3C//DTD SVG 1.1//EN" "http://www.w3.org/Graphics/SVG/1.1/DTD/svg11.dtd"><svg t="1766508974608" class="icon" viewBox="0 0 1024 1024" version="1.1" xmlns="http://www.w3.org/2000/svg" p-id="9268" data-darkreader-inline-fill="" data-spm-anchor-id="a313x.search_index.0.i2.16823a81cECum4" xmlns:xlink="http://www.w3.org/1999/xlink" width="200" height="200"><path d="M640.785792 127.833606a127.782178 127.782178 0 0 1-78.02988 117.755567 24.444624 24.444624 0 0 1-12.971135 1.751484A266.860159 266.860159 0 0 0 357.933823 294.199199a142.98709 142.98709 0 0 0 2.208392-25.383826A145.728543 145.728543 0 0 0 172.403441 129.458171 510.037208 510.037208 0 0 1 512.775159 0.00066h0.456909a127.832946 127.832946 0 0 1 127.553724 127.832946z" fill="#47D0DB" p-id="9269" data-darkreader-inline-fill="" style="--darkreader-inline-fill: var(--darkreader-background-47d0db, #1e9099);" data-spm-anchor-id="a313x.search_index.0.i4.16823a81cECum4" class=""></path><path d="M894.522513 373.625189a127.85833 127.85833 0 0 1-140.753314 12.387307 24.470008 24.470008 0 0 1-9.417399-9.062025 269.804683 269.804683 0 0 0-21.119343-30.460591 266.352482 266.352482 0 0 0-135.168871-90.264884 144.078594 144.078594 0 0 0 21.17011-14.113407 145.753927 145.753927 0 0 0-7.995905-233.683499 509.986441 509.986441 0 0 1 313.388711 185.301927l0.304606 0.380758a127.883714 127.883714 0 0 1-20.408595 179.514414z" fill="#FFCC63" p-id="9270" data-darkreader-inline-fill="" style="--darkreader-inline-fill: var(--darkreader-background-ffcc63, #906100);"></path><path d="M858.655167 724.886568a127.832946 127.832946 0 0 1-97.448507-102.296817 24.850765 24.850765 0 0 1 1.218424-13.047286 274.424539 274.424539 0 0 0 10.737358-35.537356 266.530169 266.530169 0 0 0-13.732649-161.974191 142.149424 142.149424 0 0 0 24.165402 7.792834 145.753927 145.753927 0 0 0 177.686779-151.94758 510.214895 510.214895 0 0 1 50.463045 360.602627v0.456909a127.85833 127.85833 0 0 1-153.089852 95.95086z" fill="#FF901F" p-id="9271" data-darkreader-inline-fill="" style="--darkreader-inline-fill: var(--darkreader-background-ff901f, #b95d00);"></path><path d="M565.319678 914.986039a127.807562 127.807562 0 0 1 19.24094-139.966415 24.723846 24.723846 0 0 1 10.915045-7.183623 268.865481 268.865481 0 0 0 71.683923-35.537355 265.337129 265.337129 0 0 0 80.898253-89.985662 141.920969 141.920969 0 0 0 8.96049 23.733877 145.804694 145.804694 0 0 0 229.622087 44.244008A510.214895 510.214895 0 0 1 736.152824 974.739564l-0.406141 0.203071a127.85833 127.85833 0 0 1-170.427005-59.956596z" fill="#EE4B51" p-id="9272" data-darkreader-inline-fill="" style="--darkreader-inline-fill: var(--darkreader-background-ee4b51, #9b0f14);"></path><path d="M229.694736 802.383388a127.832946 127.832946 0 0 1 121.436221-72.216984 24.546159 24.546159 0 0 1 12.438075 4.061412 266.961694 266.961694 0 0 0 193.221681 41.045646 140.27102 140.27102 0 0 0-12.971135 21.83009A145.728543 145.728543 0 0 0 652.3862 1004.184802a509.986441 509.986441 0 0 1-362.785636-31.044419l-0.406141-0.20307a127.85833 127.85833 0 0 1-59.499687-170.553925z" fill="#92163C" p-id="9273" data-darkreader-inline-fill="" style="--darkreader-inline-fill: var(--darkreader-background-92163c, #831436);"></path><path d="M109.553089 472.139817a127.85833 127.85833 0 0 1 132.198964 49.879217 24.647695 24.647695 0 0 1 4.492937 12.184236 272.673055 272.673055 0 0 0 5.762128 36.705012 268.535491 268.535491 0 0 0 12.894984 41.07103 265.362513 265.362513 0 0 0 69.729369 98.99692 143.393231 143.393231 0 0 0-25.129988 3.4522 145.703159 145.703159 0 0 0-94.22476 214.011034A509.986441 509.986441 0 0 1 13.424541 625.331204v-0.431525A127.807562 127.807562 0 0 1 109.553089 472.139817z" fill="#005581" p-id="9274" data-darkreader-inline-fill="" style="--darkreader-inline-fill: var(--darkreader-background-005581, #005480);"></path><path d="M291.605886 171.976079a127.832946 127.832946 0 0 1 43.380958 134.534275 24.876149 24.876149 0 0 1-6.726714 11.219651 266.834775 266.834775 0 0 0-83.030493 179.159042 143.19016 143.19016 0 0 0-18.37789-17.489456A145.703159 145.703159 0 0 0 0.783396 539.153116 509.961057 509.961057 0 0 1 111.710714 192.384674l0.279222-0.380757a127.883714 127.883714 0 0 1 179.61595-20.027838z" fill="#00B3E5" p-id="9275" data-darkreader-inline-fill="" style="--darkreader-inline-fill: var(--darkreader-background-00b3e5, #0094bd);" data-spm-anchor-id="a313x.search_index.0.i3.16823a81cECum4" class=""></path></svg>